<?xml version="1.0" encoding="UTF-8" standalone="no"?>
<svg
   xmlns:dc="http://purl.org/dc/elements/1.1/"
   xmlns:cc="http://creativecommons.org/ns#"
   xmlns:rdf="http://www.w3.org/1999/02/22-rdf-syntax-ns#"
   xmlns:svg="http://www.w3.org/2000/svg"
   xmlns="http://www.w3.org/2000/svg"
   viewBox="0 0 555.8573 555.8573"
   height="555.8573"
   width="555.8573"
   xml:space="preserve"
   id="svg2"
   version="1.1"><metadata
     id="metadata8"><rdf:RDF><cc:Work
         rdf:about=""><dc:format>image/svg+xml</dc:format><dc:type
           rdf:resource="http://purl.org/dc/dcmitype/StillImage" /></cc:Work></rdf:RDF></metadata><defs
     id="defs6"><clipPath
       id="clipPath18"
       clipPathUnits="userSpaceOnUse"><path
         id="path16"
         d="M 0,416.893 H 416.893 V 0 H 0 Z" /></clipPath></defs><g
     transform="matrix(1.3333333,0,0,-1.3333333,0,555.85733)"
     id="g10"><g
       id="g12"><g
         clip-path="url(#clipPath18)"
         id="g14"><g
           transform="translate(91.9056,283.1055)"
           id="g20"><path
             id="path22"
             style="fill:none;stroke:#ffc107;stroke-width:17;stroke-linecap:round;stroke-linejoin:miter;stroke-miterlimit:4;stroke-dasharray:none;stroke-opacity:1"
             d="m 0,0 22.722,-12.427 c 3.578,-1.957 3.578,-7.094 0,-9.051 L 0,-33.905 c -0.865,-0.474 -1.577,-1.185 -2.05,-2.051 l -12.428,-22.722 c -1.956,-3.578 -7.094,-3.578 -9.051,0 l -12.427,22.722 c -0.473,0.866 -1.185,1.577 -2.05,2.051 l -22.723,12.427 c -3.577,1.957 -3.577,7.094 0,9.051 L -38.006,0 c 0.865,0.474 1.577,1.185 2.05,2.05 l 12.427,22.722 c 1.957,3.578 7.095,3.578 9.051,0 L -2.05,2.05 C -1.577,1.185 -0.865,0.474 0,0 Z" /></g><g
           transform="translate(278.9061,278.1055)"
           id="g24"><path
             id="path26"
             style="fill:none;stroke:#ffc107;stroke-width:17;stroke-linecap:round;stroke-linejoin:miter;stroke-miterlimit:4;stroke-dasharray:none;stroke-opacity:1"
             d="m 0,0 22.722,-12.427 c 3.577,-1.957 3.577,-7.094 0,-9.051 L 0,-33.905 c -0.866,-0.474 -1.577,-1.186 -2.051,-2.051 l -12.427,-22.722 c -1.957,-3.578 -7.094,-3.578 -9.051,0 l -12.427,22.722 c -0.474,0.865 -1.186,1.577 -2.051,2.051 l -22.722,12.427 c -3.577,1.957 -3.577,7.094 0,9.051 L -38.007,0 c 0.865,0.474 1.577,1.185 2.051,2.05 l 12.427,22.722 c 1.957,3.578 7.094,3.578 9.051,0 L -2.051,2.05 C -1.577,1.185 -0.866,0.474 0,0 Z" /></g><g
           transform="translate(186.4056,340.1055)"
           id="g28"><path
             id="path30"
             style="fill:none;stroke:#ffc107;stroke-width:17;stroke-linecap:round;stroke-linejoin:miter;stroke-miterlimit:4;stroke-dasharray:none;stroke-opacity:1"
             d="m 0,0 22.722,-12.427 c 3.578,-1.957 3.578,-7.094 0,-9.051 L 0,-33.905 c -0.865,-0.474 -1.577,-1.185 -2.05,-2.051 l -12.428,-22.722 c -1.956,-3.577 -7.094,-3.577 -9.051,0 l -12.427,22.722 c -0.473,0.866 -1.185,1.577 -2.05,2.051 l -22.723,12.427 c -3.577,1.957 -3.577,7.094 0,9.051 L -38.006,0 c 0.865,0.474 1.577,1.185 2.05,2.05 l 12.427,22.722 c 1.957,3.578 7.095,3.578 9.051,0 L -2.05,2.05 C -1.577,1.185 -0.865,0.474 0,0 Z" /></g><g
           transform="translate(85.4129,170.1738)"
           id="g32"><path
             id="path34"
             style="fill:none;stroke:#ffc107;stroke-width:25;stroke-linecap:round;stroke-linejoin:miter;stroke-miterlimit:4;stroke-dasharray:none;stroke-opacity:1"
             d="M 0,0 C -27.5,20.5 -55.114,22.574 -65.5,6.5 -86.5,-26 -12,-61 -20,-74.5 -28,-88 -47.5,-73 -47.5,-73" /></g><g
           transform="translate(353.5995,228.8135)"
           id="g36"><path
             id="path38"
             style="fill:none;stroke:#ffc107;stroke-width:17;stroke-linecap:round;stroke-linejoin:miter;stroke-miterlimit:4;stroke-dasharray:none;stroke-opacity:1"
             d="m 0,0 c 10,21.222 11,63.022 -22,75.241 -33,12.218 -48.5,69.453 -6.5,99.678" /></g><g
           transform="translate(384.6532,228.417)"
           id="g40"><path
             id="path42"
             style="fill:none;stroke:#ffc107;stroke-width:17;stroke-linecap:round;stroke-linejoin:miter;stroke-miterlimit:4;stroke-dasharray:none;stroke-opacity:1"
             d="m 0,0 c 8.669,11.547 16.841,38.466 3.375,53.771 -13.465,15.305 -10.31,55.932 15.256,66.178" /></g><g
           transform="translate(331.913,197.6738)"
           id="g44"><path
             id="path46"
             style="fill:none;stroke:#ffc107;stroke-width:25;stroke-linecap:round;stroke-linejoin:miter;stroke-miterlimit:4;stroke-dasharray:none;stroke-opacity:1"
             d="m 0,0 c 0,0 -61.452,-52.88 -83,-35 -10.99,9.119 -20.45,16.925 -32.725,22.653 0.125,0.438 0.213,0.884 0.225,1.347 0.377,14.684 -12.012,28.224 -31.599,34.021 C -148.104,34.357 -156.993,44 -169.357,44 -182.205,44 -190.318,34.779 -190.84,22.955 -208.95,17.516 -219.5,5.341 -219.5,-9 c 0,-0.698 0.147,-1.372 0.403,-2.025 -26.133,-12.009 -41.726,-34.745 -42.403,-60.475 -0.808,-30.707 26.139,-59.451 63.422,-69.354 l -0.347,-0.4 c -3.03,-3.493 -6.299,-6.771 -9.784,-9.81 l -22.405,-19.544 c -4.161,-4.238 -1.159,-11.392 4.779,-11.392 h 57.685 57.684 c 5.939,0 8.941,7.154 4.779,11.392 l -22.818,19.904 c -3.209,2.8 -6.221,5.818 -9.011,9.035 l -0.239,0.275 c 32.585,6.563 54.912,22.488 72.255,37.394 C -5,-52 44,0 44,0 Z" /></g></g></g></g></svg>